<svg xmlns="http://www.w3.org/2000/svg" viewBox="0 0 37.21 46.51"><defs><style>.cls-1{fill:#141532;}</style></defs><g id="Layer_2" data-name="Layer 2"><g id="Layer_1-2" data-name="Layer 1"><g id="design"><path class="cls-1" d="M33.14,46.51H4.07A4.09,4.09,0,0,1,0,42.44V4.07A4.09,4.09,0,0,1,4.07,0H33.14a4.09,4.09,0,0,1,4.07,4.07V42.44A4.09,4.09,0,0,1,33.14,46.51ZM4.07,3.49a.57.57,0,0,0-.58.58V42.44a.57.57,0,0,0,.58.58H33.14a.58.58,0,0,0,.58-.58V4.07a.57.57,0,0,0-.58-.58Z"/><path class="cls-1" d="M28.53,25.56H8.77a1.75,1.75,0,1,1,0-3.49H28.53a1.75,1.75,0,1,1,0,3.49Z"/><path class="cls-1" d="M28.53,32H8.77a1.75,1.75,0,1,1,0-3.49H28.53a1.75,1.75,0,1,1,0,3.49Z"/><path class="cls-1" d="M28.44,18.6H8.67a1.75,1.75,0,0,1,0-3.49H28.44a1.75,1.75,0,0,1,0,3.49Z"/><path class="cls-1" d="M28.53,11.29H8.77a1.75,1.75,0,1,1,0-3.49H28.53a1.75,1.75,0,1,1,0,3.49Z"/><path class="cls-1" d="M28.44,38.52H8.67a1.74,1.74,0,1,1,0-3.48H28.44a1.74,1.74,0,0,1,0,3.48Z"/></g></g></g></svg>